<svg xmlns="http://www.w3.org/2000/svg" viewBox="0 0 459.42 167.71"><defs><style>.cls-1{fill:#ff8819;}</style></defs><title>logo-svg</title><g id="Layer_2" data-name="Layer 2"><g id="Layer_1-2" data-name="Layer 1"><polygon class="cls-1" points="109.09 0.81 28.05 167.08 0 167.08 81.04 0.81 109.09 0.81"/><polygon points="226.18 167.08 194.83 167.08 148.75 104.71 133.07 83.5 148.75 62.29 194.18 0.81 225.52 0.81 164.42 83.5 226.18 167.08"/><polygon points="123.48 120.56 113.5 134.06 89.1 167.08 69.13 167.08 103.51 120.56 76.46 83.94 96.42 83.94 113.5 107.04 123.48 120.56"/><path d="M308.51,51.9a62.43,62.43,0,0,1-1.32,13.24Q305,74,300.46,78.49t-12,4.45q-8.53,0-13.1-5.62c-.16-.23-.32-.31-.48-.23a.47.47,0,0,0-.24.47v3a1.34,1.34,0,0,1-.42,1,1.41,1.41,0,0,1-1,.41H262.13a1.4,1.4,0,0,1-1-.41,1.33,1.33,0,0,1-.42-1V1.41a1.34,1.34,0,0,1,.42-1,1.41,1.41,0,0,1,1-.41h11.05a1.42,1.42,0,0,1,1,.41,1.35,1.35,0,0,1,.42,1v25c0,.23.08.37.24.41s.32-.06.48-.29q4.2-5.27,12.62-5.27,15.74,0,19.47,17.81A72.39,72.39,0,0,1,308.51,51.9ZM294.45,52A41.71,41.71,0,0,0,293,39.83q-2.52-6.91-8.77-6.91t-8.17,7Q274.74,44,274.74,52a44.47,44.47,0,0,0,1.2,11.83q2,7.38,8.41,7.38,6.73,0,8.89-7.5A44,44,0,0,0,294.45,52Z"/><path d="M351.64,22.84a1.44,1.44,0,0,1,.72,1.76l-2,10.66q-.12,1.41-1.68.82a10.25,10.25,0,0,0-3.6-.59,20.13,20.13,0,0,0-2.52.23,9.57,9.57,0,0,0-6.79,3.63,12.47,12.47,0,0,0-2.7,8.2v33a1.34,1.34,0,0,1-.42,1,1.41,1.41,0,0,1-1,.41H320.52a1.4,1.4,0,0,1-1-.41,1.33,1.33,0,0,1-.42-1V23.55a1.34,1.34,0,0,1,.42-1,1.41,1.41,0,0,1,1-.41h11.05a1.42,1.42,0,0,1,1,.41,1.34,1.34,0,0,1,.42,1v5q0,.47.18.53c.12,0,.26-.06.42-.29q4.33-7.38,12.14-7.38A11.9,11.9,0,0,1,351.64,22.84Z"/><path d="M365.1,77.84a21.17,21.17,0,0,1-7.57-13.76,71.5,71.5,0,0,1-1-12.07,73,73,0,0,1,1-12.3,20.44,20.44,0,0,1,7.69-13.53q6.37-5,16-5t15.74,5a20.56,20.56,0,0,1,7.57,13.41,76,76,0,0,1,1,12.3A74.63,74.63,0,0,1,404.63,64a21.28,21.28,0,0,1-7.57,13.88q-6.25,5.1-16,5.1T365.1,77.84Zm22.65-9.2a11.26,11.26,0,0,0,3.3-6.79q.48-6.09.48-9.84t-.48-10a10.74,10.74,0,0,0-3.3-6.68,10.35,10.35,0,0,0-13.4,0,10.87,10.87,0,0,0-3.24,6.68,87.25,87.25,0,0,0-.48,10,82.26,82.26,0,0,0,.48,9.84,11.41,11.41,0,0,0,3.24,6.79,10,10,0,0,0,13.4,0Z"/><path d="M419.89,78.14a14.14,14.14,0,0,1-6.25-11.95v-.94a1.34,1.34,0,0,1,.42-1,1.41,1.41,0,0,1,1-.41h10.45a1.42,1.42,0,0,1,1,.41,1.34,1.34,0,0,1,.42,1v.35a6,6,0,0,0,2.76,4.86,11.18,11.18,0,0,0,6.85,2.05A10.33,10.33,0,0,0,443,70.64,5.68,5.68,0,0,0,445.48,66,4.82,4.82,0,0,0,443,61.62a39.68,39.68,0,0,0-7.63-3.28l-3.12-1.05a40.36,40.36,0,0,1-13.1-6.5q-4.93-3.92-4.93-11.66a15.6,15.6,0,0,1,6-12.94q6-4.74,15.86-4.75,10.21,0,16.28,4.86a15.75,15.75,0,0,1,6.07,12.94v.12a1.34,1.34,0,0,1-.42,1,1.41,1.41,0,0,1-1,.41H446.93a1.4,1.4,0,0,1-1-.41,1.33,1.33,0,0,1-.42-1v-.47A5.89,5.89,0,0,0,443,34a10.58,10.58,0,0,0-6.61-1.93A10.3,10.3,0,0,0,430,33.91a5.57,5.57,0,0,0-2.4,4.63,4.68,4.68,0,0,0,1.68,3.69A12.76,12.76,0,0,0,433,44.52q2.1.82,7.39,2.58A69.54,69.54,0,0,1,450,51a19.94,19.94,0,0,1,6.67,5.51,14,14,0,0,1,2.76,8.9,15,15,0,0,1-6.19,12.71q-6.19,4.63-16.64,4.63T419.89,78.14Z"/><path class="cls-1" d="M268.78,165a18.71,18.71,0,0,1-7.89-7.36,21.56,21.56,0,0,1-2.79-11.09V120a21.12,21.12,0,0,1,2.79-10.94,18.8,18.8,0,0,1,7.89-7.31,25.7,25.7,0,0,1,11.76-2.58,26.12,26.12,0,0,1,11.76,2.53,18.8,18.8,0,0,1,7.89,7.12,20.17,20.17,0,0,1,2.79,10.7V120a1.25,1.25,0,0,1-.34.86,1.08,1.08,0,0,1-.83.38l-11.47.48c-.78,0-1.18-.35-1.18-1.05v-1.24a8.6,8.6,0,0,0-2.35-6.31,9.43,9.43,0,0,0-12.55,0,8.6,8.6,0,0,0-2.35,6.31v28a8.63,8.63,0,1,0,17.25,0v-1.24q0-1.05,1.18-1.05l11.47.48a1.15,1.15,0,0,1,.83.33,1.1,1.1,0,0,1,.34.81v.29a20.67,20.67,0,0,1-2.79,10.8,18.59,18.59,0,0,1-7.89,7.22,26.11,26.11,0,0,1-11.76,2.53A25.71,25.71,0,0,1,268.78,165Z"/><path class="cls-1" d="M320.5,165a19.4,19.4,0,0,1-8-7.55,22.16,22.16,0,0,1-2.84-11.37V120.69a22,22,0,0,1,2.84-11.28,19.4,19.4,0,0,1,8-7.55,25.47,25.47,0,0,1,11.91-2.68,25.77,25.77,0,0,1,12,2.68,19.34,19.34,0,0,1,8,7.55,22,22,0,0,1,2.84,11.28v25.42a22.17,22.17,0,0,1-2.84,11.37,19.34,19.34,0,0,1-8,7.55,25.76,25.76,0,0,1-12,2.68A25.46,25.46,0,0,1,320.5,165ZM339,153.52a9.62,9.62,0,0,0,2.45-6.83V120.3a9.76,9.76,0,0,0-2.45-6.93,8.55,8.55,0,0,0-6.57-2.63,8.43,8.43,0,0,0-6.47,2.63,9.75,9.75,0,0,0-2.45,6.93v26.38a9.61,9.61,0,0,0,2.45,6.83,8.42,8.42,0,0,0,6.47,2.63A8.55,8.55,0,0,0,339,153.52Z"/><path class="cls-1" d="M363.83,166.52a1.09,1.09,0,0,1-.34-.81V101.09a1.09,1.09,0,0,1,.34-.81,1.15,1.15,0,0,1,.83-.33h21.08a26.88,26.88,0,0,1,11.62,2.39,18,18,0,0,1,7.79,6.79,18.92,18.92,0,0,1,2.75,10.23v28.1a18.91,18.91,0,0,1-2.75,10.23,18,18,0,0,1-7.79,6.79,26.86,26.86,0,0,1-11.62,2.39H364.66A1.14,1.14,0,0,1,363.83,166.52Zm14-11.23,8-.1a7.5,7.5,0,0,0,5.88-2.53,10.13,10.13,0,0,0,2.35-6.74v-25a9.9,9.9,0,0,0-2.26-6.83,7.62,7.62,0,0,0-6-2.53h-8a.43.43,0,0,0-.49.48v42.82A.43.43,0,0,0,377.8,155.29Z"/><path class="cls-1" d="M457.46,111.18a1.15,1.15,0,0,1-.83.33H430.35a.43.43,0,0,0-.49.48V126.9a.43.43,0,0,0,.49.48h16.37a1.15,1.15,0,0,1,.83.33,1.1,1.1,0,0,1,.34.81v9.27a1.09,1.09,0,0,1-.34.81,1.15,1.15,0,0,1-.83.33H430.35a.43.43,0,0,0-.49.48v15.39a.43.43,0,0,0,.49.48h26.27a1.16,1.16,0,0,1,.83.33,1.1,1.1,0,0,1,.34.81v9.27a1.09,1.09,0,0,1-.34.81,1.15,1.15,0,0,1-.83.33H417.21a1.14,1.14,0,0,1-.83-.33,1.09,1.09,0,0,1-.34-.81V101.09a1.09,1.09,0,0,1,.34-.81,1.15,1.15,0,0,1,.83-.33h39.41a1.16,1.16,0,0,1,.83.33,1.1,1.1,0,0,1,.34.81v9.27A1.09,1.09,0,0,1,457.46,111.18Z"/></g></g></svg>